<svg width="26" height="27" viewBox="0 0 24 25" fill="none" xmlns="http://www.w3.org/2000/svg">
<path d="M4 20.4258C4 19.7627 4.26339 19.1269 4.73223 18.658C5.20107 18.1892 5.83696 17.9258 6.5 17.9258H20" stroke="white" stroke-width="2" stroke-linecap="round" stroke-linejoin="round"/>
<path d="M6.5 2.92578H20V22.9258H6.5C5.83696 22.9258 5.20107 22.6624 4.73223 22.1935C4.26339 21.7247 4 21.0888 4 20.4258V5.42578C4 4.76274 4.26339 4.12686 4.73223 3.65801C5.20107 3.18917 5.83696 2.92578 6.5 2.92578V2.92578Z" stroke="white" stroke-width="2" stroke-linecap="round" stroke-linejoin="round"/>
<path d="M11.6799 13.5216C11.7121 13.4745 11.747 13.4294 11.7845 13.3866C11.8656 13.3023 11.9621 13.2353 12.0684 13.1896C12.1746 13.1439 12.2886 13.1204 12.4038 13.1204C12.5189 13.1204 12.6329 13.1439 12.7392 13.1896C12.8455 13.2353 12.9419 13.3023 13.023 13.3866C13.1039 13.4707 13.1678 13.5704 13.2112 13.6801C13.2546 13.7897 13.2766 13.9071 13.276 14.0256C13.2801 14.142 13.2623 14.2582 13.2236 14.3676C13.1844 14.4793 13.122 14.5807 13.0406 14.6647C12.9592 14.7487 12.8609 14.8132 12.7526 14.8536C12.6482 14.9012 12.5354 14.9258 12.4212 14.9258C12.3071 14.9258 12.1942 14.9012 12.0898 14.8536C11.9816 14.8132 11.8833 14.7487 11.8019 14.6647C11.7205 14.5807 11.658 14.4793 11.6188 14.3676C11.57 14.2608 11.5461 14.1436 11.5491 14.0256C11.5448 13.9657 11.5448 13.9055 11.5491 13.8456C11.5586 13.7892 11.5762 13.7346 11.6014 13.6836C11.6205 13.6263 11.6469 13.5718 11.6799 13.5216Z" fill="white"/>
<path d="M11.0946 6.28707C11.4927 6.05009 11.9442 5.92548 12.4038 5.92578C13.0174 5.93069 13.6098 6.15799 14.0775 6.56793C14.5451 6.97787 14.8583 7.54438 14.9622 8.16843C15.0661 8.79248 14.9542 9.43436 14.6459 9.98187C14.3377 10.5294 13.8528 10.9477 13.276 11.1637V11.3257C13.276 11.5643 13.1841 11.7933 13.0205 11.962C12.8569 12.1308 12.6351 12.2256 12.4038 12.2256C12.1725 12.2256 11.9506 12.1308 11.7871 11.962C11.6235 11.7933 11.5316 11.5643 11.5316 11.3257V10.4257C11.5316 10.187 11.6235 9.95807 11.7871 9.78929C11.9506 9.62052 12.1725 9.5257 12.4038 9.5257C12.6351 9.5257 12.8569 9.43088 13.0205 9.2621C13.1841 9.09332 13.276 8.86441 13.276 8.62572C13.276 8.38703 13.1841 8.15812 13.0205 7.98934C12.8569 7.82056 12.6351 7.72574 12.4038 7.72574C12.2501 7.72511 12.099 7.7664 11.9657 7.84542C11.8325 7.92444 11.7218 8.03839 11.645 8.17573C11.5905 8.28328 11.5154 8.37834 11.4244 8.45519C11.3333 8.53204 11.2281 8.58909 11.1152 8.62291C11.0022 8.65673 10.8838 8.66662 10.767 8.65198C10.6502 8.63734 10.5375 8.59848 10.4357 8.53774C10.3339 8.477 10.245 8.39562 10.1744 8.29852C10.1038 8.20141 10.053 8.09058 10.025 7.97268C9.99706 7.85479 9.99247 7.73227 10.0116 7.6125C10.0307 7.49273 10.073 7.37818 10.1361 7.27575C10.3659 6.86505 10.6965 6.52406 11.0946 6.28707Z" fill="white"/>
</svg>
