<svg width="24" height="24" viewBox="0 0 24 24" fill="none" xmlns="http://www.w3.org/2000/svg">
<path d="M23.625 12C23.5781 5.57812 18.375 0.375 12 0.375C8.85938 0.375 6.04688 1.64062 3.9375 3.60938L1.64062 1.3125C1.17188 0.84375 0.375 1.17188 0.375 1.82812V8.625C0.375 9.04688 0.703125 9.375 1.125 9.375H7.92188C8.57812 9.375 8.90625 8.57812 8.4375 8.10938L6.04688 5.71875C7.59375 4.26562 9.70312 3.375 12 3.375C16.7344 3.375 20.625 7.26562 20.625 12C20.625 16.7812 16.7344 20.625 12 20.625C9.9375 20.625 8.10938 19.9688 6.60938 18.7969C6.1875 18.4219 5.53125 18.4688 5.10938 18.8906L4.59375 19.4062C4.125 19.875 4.17188 20.6719 4.6875 21.0938C6.65625 22.6875 9.23438 23.6719 12 23.625C18.375 23.625 23.625 18.4219 23.625 12ZM15.1406 15.7031L15.5625 15.0938C15.9844 14.625 15.8906 13.9219 15.375 13.5469L13.5 12.0469V7.125C13.5 6.51562 12.9844 6 12.375 6H11.625C10.9688 6 10.5 6.51562 10.5 7.125V13.5L13.5469 15.8906C14.0156 16.2656 14.7188 16.1719 15.1406 15.7031Z" fill="white"/>
</svg>
