<svg width="17" height="24" viewBox="0 0 17 24" fill="none" xmlns="http://www.w3.org/2000/svg">
<path d="M4.64119 21.297C4.64119 21.5922 4.7289 21.8801 4.89639 22.1263L5.72417 23.3306C5.97772 23.6997 6.5534 24 7.01076 24H9.98914C10.445 24 11.0207 23.6999 11.2743 23.3306L12.0992 22.1267C12.2411 21.9187 12.3575 21.5468 12.3575 21.297L12.3636 19.4593H4.63636L4.64119 21.297ZM8.5 0C3.57483 0.0150152 0 3.88952 0 8.20845C0 10.2889 0.793977 12.1856 2.10375 13.637C2.90207 14.5202 4.14858 16.3667 4.62574 17.9241C4.62725 17.9358 4.63027 17.9483 4.63178 17.9607H12.3687C12.3702 17.9483 12.3732 17.9365 12.3747 17.9241C12.8517 16.3667 14.0984 14.5202 14.8967 13.637C16.208 12.226 17 10.3321 17 8.20845C17 3.69404 13.1943 0.000182827 8.5 0ZM13.1557 12.1931C12.3994 13.0299 11.4634 14.3636 10.7868 15.7508H6.21756C5.54094 14.3636 4.60497 13.0299 3.84915 12.1936C2.86102 11.1009 2.31818 9.66169 2.31818 8.20845C2.31818 5.31135 4.64119 2.2619 8.45653 2.25018C11.9097 2.25018 14.6818 4.94101 14.6818 8.20845C14.6818 9.66169 14.1409 11.1009 13.1557 12.1931ZM7.72727 3.75029C5.59744 3.75029 3.86364 5.43324 3.86364 7.50059C3.86364 7.91518 4.20924 8.25064 4.63636 8.25064C5.06349 8.25064 5.40909 7.91312 5.40909 7.50059C5.40909 6.25971 6.44889 5.25041 7.72727 5.25041C8.1544 5.25041 8.5 4.91532 8.5 4.50082C8.5 4.08632 8.15227 3.75029 7.72727 3.75029Z" fill="black"/>
</svg>
