<svg width="25" height="25" viewBox="0 0 25 25" fill="none" xmlns="http://www.w3.org/2000/svg">
<path d="M1.46441 0C0.717117 0 0 0.601206 0 1.50943V9.6539C0 10.2451 0.46249 10.724 1.03284 10.724H8.88289C9.76003 10.724 10.3408 9.98046 10.3408 9.20565C10.3408 8.83533 10.2082 8.45763 9.91196 8.15061L7.48098 5.63079C9.00142 4.33906 10.9211 3.58546 12.9388 3.58546C17.685 3.58546 21.5486 7.58736 21.5486 12.5059C21.5486 17.4244 17.6871 21.424 12.9405 21.424C8.99981 21.424 8.12159 19.2855 6.73908 19.2855C5.74341 19.2855 5.01659 20.125 5.01659 21.0696C5.01659 23.0256 9.41251 25 12.9367 25C19.5852 25 25 19.3899 25 12.5014C25 5.61293 19.5836 0.0184212 12.9351 0.0184212C9.99332 0.0184212 7.21321 1.15664 5.04731 3.10316L2.4827 0.444345C2.18637 0.137323 1.82 0 1.46441 0Z" fill="#FDFEFF"/>
</svg>
