<svg width="34" height="30" viewBox="0 0 34 30" fill="none" xmlns="http://www.w3.org/2000/svg">
<path d="M5.77254 1H28.4706C28.8149 1 29.1351 1.17718 29.3179 1.46899L33.3284 7.86864V27.9325C33.3284 28.4847 32.8807 28.9325 32.3284 28.9325H2C1.44772 28.9325 1 28.4847 1 27.9325V7.86864L4.9201 1.47717C5.10193 1.1807 5.42475 1 5.77254 1Z" fill="black"/>
<path d="M33.3284 7.86864L29.3179 1.46899C29.1351 1.17718 28.8149 1 28.4706 1H5.77254C5.42475 1 5.10193 1.1807 4.9201 1.47717L1 7.86864M33.3284 7.86864V27.9325C33.3284 28.4847 32.8807 28.9325 32.3284 28.9325H2C1.44772 28.9325 1 28.4847 1 27.9325V7.86864M33.3284 7.86864H1" stroke="#FEFEFE" stroke-width="0.5" stroke-linecap="round"/>
<path d="M14.5501 7.01446L15.2991 2.2805C15.3759 1.79459 15.7948 1.43677 16.2868 1.43677H17.8109C18.2863 1.43677 18.6961 1.77153 18.7908 2.23744L19.7582 6.99345C19.7716 7.05905 19.7783 7.12583 19.7783 7.19278V12.8976C19.7783 13.3212 19.435 13.6645 19.0114 13.6645H18.0289H16.9024H15.53C14.982 13.6645 14.5378 13.2203 14.5378 12.6724V7.17072C14.5378 7.11839 14.5419 7.06614 14.5501 7.01446Z" fill="white"/>
<line x1="23.346" y1="10.3907" x2="31.222" y2="10.3907" stroke="white"/>
<rect x="23.3461" y="11.8065" width="7.87604" height="3.84644" fill="white"/>
</svg>
