<svg width="37" height="55" viewBox="0 0 76 65" fill="none" xmlns="http://www.w3.org/2000/svg">
<path d="M11.2065 0.5H64.618C64.9624 0.5 65.2825 0.677184 65.4654 0.968986L75.0279 16.2283V63.4618C75.0279 64.014 74.5802 64.4618 74.0279 64.4618H2C1.44772 64.4618 1 64.014 1 63.4618V16.2283L10.354 0.977171C10.5359 0.680701 10.8587 0.5 11.2065 0.5Z" fill="black"/>
<path d="M75.0279 16.2283L65.4654 0.968986C65.2825 0.677184 64.9624 0.5 64.618 0.5H11.2065C10.8587 0.5 10.5359 0.680701 10.354 0.977171L1 16.2283M75.0279 16.2283V63.4618C75.0279 64.014 74.5802 64.4618 74.0279 64.4618H2C1.44772 64.4618 1 64.014 1 63.4618V16.2283M75.0279 16.2283H1" stroke="#FEFEFE" stroke-linecap="round"/>
<path d="M32.0123 14.3724L33.9153 2.34374C33.9922 1.85782 34.4111 1.5 34.903 1.5H40.5488C41.0242 1.5 41.4339 1.83476 41.5287 2.30067L43.9799 14.3513C43.9933 14.417 44 14.4837 44 14.5507V28.5C44 29.0523 43.5523 29.5 43 29.5H42.2439H39.9941H37.4146H34.2719H33C32.4477 29.5 32 29.0523 32 28.5V14.5286C32 14.4763 32.0041 14.424 32.0123 14.3724Z" fill="white"/>
<line x1="52.1694" y1="22.1487" x2="70.2046" y2="22.1487" stroke="white" stroke-width="2"/>
<rect x="52.1694" y="25.2456" width="18.0351" height="8.80785" fill="white"/>
</svg>
