<svg width="44" height="49" viewBox="0 0 44 49" fill="none" xmlns="http://www.w3.org/2000/svg">
<path fill-rule="evenodd" clip-rule="evenodd" d="M7.72893 18.7328L24.9946 0.31606C25.3928 -0.108592 26.068 -0.104811 26.4613 0.324275L43.3434 18.741C43.9313 19.3824 43.4763 20.4168 42.6062 20.4168H38.352V39.3044C38.352 40.409 37.4566 41.3044 36.352 41.3044H30.5192V30.8606H20.0753V41.3044H14.2425C13.1379 41.3044 12.2425 40.409 12.2425 39.3044V20.4168H8.45847C7.58303 20.4168 7.13018 19.3715 7.72893 18.7328Z" fill="black"/>
<g filter="url(#filter0_d)">
<path fill-rule="evenodd" clip-rule="evenodd" d="M18.3858 31.6929C18.3858 33.2707 17.7439 34.6986 16.707 35.7297H16.7297L12.6455 39.8604L8.65618 35.7297H8.67879C7.64189 34.6986 7 33.2707 7 31.6929C7 28.5488 9.54879 26 12.6929 26C15.837 26 18.3858 28.5488 18.3858 31.6929ZM12.8558 33.157C13.9338 33.157 14.8077 32.1375 14.8077 30.8798C14.8077 29.6221 13.9338 28.6026 12.8558 28.6026C11.7778 28.6026 10.9039 29.6221 10.9039 30.8798C10.9039 32.1375 11.7778 33.157 12.8558 33.157Z" fill="#E7E7E7"/>
<path d="M16.707 35.7297L16.3544 35.3752L15.4951 36.2297H16.707V35.7297ZM16.7297 35.7297L17.0853 36.0813L17.9273 35.2297H16.7297V35.7297ZM12.6455 39.8604L12.2858 40.2077L12.6413 40.5757L13.001 40.2119L12.6455 39.8604ZM8.65618 35.7297V35.2297H7.47818L8.29653 36.0771L8.65618 35.7297ZM8.67879 35.7297V36.2297H9.8907L9.03135 35.3752L8.67879 35.7297ZM17.0595 36.0842C18.1869 34.9632 18.8858 33.4092 18.8858 31.6929H17.8858C17.8858 33.1323 17.3008 34.4341 16.3544 35.3752L17.0595 36.0842ZM16.7297 35.2297H16.707V36.2297H16.7297V35.2297ZM13.001 40.2119L17.0853 36.0813L16.3742 35.3782L12.2899 39.5088L13.001 40.2119ZM8.29653 36.0771L12.2858 40.2077L13.0051 39.513L9.01584 35.3824L8.29653 36.0771ZM8.67879 35.2297H8.65618V36.2297H8.67879V35.2297ZM6.5 31.6929C6.5 33.4092 7.19882 34.9632 8.32623 36.0842L9.03135 35.3752C8.08496 34.4341 7.5 33.1323 7.5 31.6929H6.5ZM12.6929 25.5C9.27265 25.5 6.5 28.2726 6.5 31.6929H7.5C7.5 28.8249 9.82493 26.5 12.6929 26.5V25.5ZM18.8858 31.6929C18.8858 28.2726 16.1131 25.5 12.6929 25.5V26.5C15.5608 26.5 17.8858 28.8249 17.8858 31.6929H18.8858ZM14.3077 30.8798C14.3077 31.9364 13.5881 32.657 12.8558 32.657V33.657C14.2794 33.657 15.3077 32.3385 15.3077 30.8798H14.3077ZM12.8558 29.1026C13.5881 29.1026 14.3077 29.8232 14.3077 30.8798H15.3077C15.3077 29.4211 14.2794 28.1026 12.8558 28.1026V29.1026ZM11.4039 30.8798C11.4039 29.8232 12.1234 29.1026 12.8558 29.1026V28.1026C11.4321 28.1026 10.4039 29.4211 10.4039 30.8798H11.4039ZM12.8558 32.657C12.1234 32.657 11.4039 31.9364 11.4039 30.8798H10.4039C10.4039 32.3385 11.4321 33.657 12.8558 33.657V32.657Z" fill="#E7E7E7"/>
</g>
<defs>
<filter id="filter0_d" x="0.5" y="21.5" width="24.3858" height="27.0757" filterUnits="userSpaceOnUse" color-interpolation-filters="sRGB">
<feFlood flood-opacity="0" result="BackgroundImageFix"/>
<feColorMatrix in="SourceAlpha" type="matrix" values="0 0 0 0 0 0 0 0 0 0 0 0 0 0 0 0 0 0 127 0"/>
<feOffset dy="2"/>
<feGaussianBlur stdDeviation="3"/>
<feColorMatrix type="matrix" values="0 0 0 0 0 0 0 0 0 0 0 0 0 0 0 0 0 0 0.4 0"/>
<feBlend mode="normal" in2="BackgroundImageFix" result="effect1_dropShadow"/>
<feBlend mode="normal" in="SourceGraphic" in2="effect1_dropShadow" result="shape"/>
</filter>
</defs>
</svg>
