<svg width="40" height="40" viewBox="0 0 40 40" fill="none" xmlns="http://www.w3.org/2000/svg">
<path fill-rule="evenodd" clip-rule="evenodd" d="M19.9985 0.000976562C19.3372 0.000980079 18.6833 0.0330955 18.0382 0.0958745L17.5406 0.144306L17.6375 1.1396L18.1351 1.09117C18.748 1.03152 19.3696 1.00098 19.9985 1.00098M19.9986 0.000976562C31.0435 0.00103492 39.9971 8.9547 39.9971 19.9996C39.9971 31.0445 31.0435 39.9981 19.9986 39.9982M14.4815 1.8143L14.96 1.66932L14.6701 0.712277L14.1916 0.857255C12.9265 1.24053 11.7145 1.74573 10.5693 2.35913L10.1286 2.5952L10.6007 3.47672L11.0415 3.24064C12.1293 2.658 13.2803 2.17824 14.4815 1.8143ZM7.94604 5.31271L8.33237 4.99529L7.69754 4.22264L7.31122 4.54005C6.2993 5.37146 5.37048 6.30028 4.53908 7.31219L4.22166 7.69852L4.99432 8.33335L5.31173 7.94702C6.10179 6.98543 6.98445 6.10277 7.94604 5.31271ZM3.23966 11.0424L3.47574 10.6017L2.59423 10.1295L2.35815 10.5703C1.74475 11.7155 1.23955 12.9275 0.856279 14.1925L0.711301 14.6711L1.66834 14.961L1.81332 14.4825C2.17727 13.2812 2.65703 12.1302 3.23966 11.0424ZM1.0902 18.1361L1.13863 17.6384L0.143329 17.5416L0.0948978 18.0392C0.0321155 18.6843 0 19.3383 0 19.9996C0 20.6609 0.0321155 21.3148 0.0948979 21.96L0.14333 22.4576L1.13863 22.3607L1.0902 21.8631C1.03054 21.2501 1 20.6285 1 19.9996C1 19.3707 1.03054 18.749 1.0902 18.1361ZM1.81332 25.5167L1.66834 25.0382L0.711301 25.3281L0.856279 25.8066C1.23955 27.0717 1.74475 28.2837 2.35815 29.4289L2.59423 29.8696L3.47574 29.3975L3.23966 28.9567C2.65703 27.8689 2.17727 26.7179 1.81332 25.5167ZM5.31173 32.0521L4.99432 31.6658L4.22166 32.3006L4.53908 32.687C5.37049 33.6989 6.2993 34.6277 7.31122 35.4591L7.69755 35.7765L8.33237 35.0039L7.94605 34.6865C6.98445 33.8964 6.10179 33.0137 5.31173 32.0521ZM11.0415 36.7585L10.6007 36.5224L10.1286 37.404L10.5693 37.64C11.7145 38.2534 12.9265 38.7586 14.1916 39.1419L14.6701 39.2869L14.96 38.3298L14.4815 38.1849C13.2803 37.8209 12.1293 37.3412 11.0415 36.7585ZM18.1351 38.908L17.6375 38.8596L17.5406 39.8549L18.0382 39.9033C18.6833 39.9661 19.3372 39.9982 19.9985 39.9982M18.1351 38.908C18.748 38.9676 19.3696 38.9982 19.9985 38.9982L18.1351 38.908ZM19.9986 1.00098C30.4912 1.00104 38.9971 9.50698 38.9971 19.9996C38.9971 30.4922 30.4912 38.9981 19.9986 38.9982" fill="white"/>
<path d="M28.3552 19.9995L15.8204 28.6839L15.8204 11.3152L28.3552 19.9995Z" fill="white"/>
</svg>
