<svg width="90" height="41" viewBox="0 0 90 41" fill="none" xmlns="http://www.w3.org/2000/svg">
<path d="M1 3.5V31.5C1 33.1569 2.34315 34.5 4 34.5H86.0631C87.6951 34.5 89.0278 33.1954 89.0625 31.5638L89.471 12.3612C89.4894 11.4962 89.1335 10.6653 88.4945 10.082L78.8593 1.28454C78.3065 0.77983 77.585 0.5 76.8365 0.5H69.5C67.8431 0.5 66.5 1.84315 66.5 3.5V19C66.5 20.6569 65.1569 22 63.5 22H62.431C60.8014 22 59.4697 20.699 59.4319 19.0697L59.0681 3.43025C59.0303 1.80101 57.6986 0.5 56.069 0.5H4C2.34315 0.5 1 1.84315 1 3.5Z" fill="black" stroke="black"/>
<circle cx="14.5" cy="34" r="6.5" fill="black" stroke="black"/>
<circle cx="33.5" cy="34" r="6.5" fill="black" stroke="black"/>
<circle cx="68.5" cy="34" r="6.5" fill="black" stroke="black"/>
</svg>
