<svg width="50" height="24" viewBox="0 0 50 24" fill="none" xmlns="http://www.w3.org/2000/svg">
<path d="M1 4V16.6289C1 18.2857 2.34314 19.6289 4 19.6289H46.279C47.911 19.6289 49.2436 18.3243 49.2784 16.6927L49.4609 8.11426C49.4793 7.24923 49.1233 6.41838 48.4844 5.83499L44.0482 1.78454C43.4954 1.27983 42.7739 1 42.0254 1H39.888C38.2311 1 36.888 2.34314 36.888 4V10.84C36.888 11.9115 36.0194 12.78 34.948 12.78C33.8941 12.78 33.033 11.9387 33.0085 10.8851L32.8468 3.93025C32.8089 2.30101 31.4773 1 29.8476 1H4C2.34315 1 1 2.34315 1 4Z" fill="#127DBD" stroke="white"/>
<circle cx="8.39682" cy="19.3549" r="3.33535" fill="#127DBD" stroke="white"/>
<circle cx="18.8072" cy="19.3549" r="3.33535" fill="#127DBD" stroke="white"/>
<circle cx="37.984" cy="19.3549" r="3.33535" fill="#127DBD" stroke="white"/>
</svg>
