<svg width="51" height="24" viewBox="0 0 51 24" fill="none" xmlns="http://www.w3.org/2000/svg">
<path d="M1.22113 4.54321L1.33905 17.1715C1.35452 18.8283 2.71014 20.1588 4.36693 20.1434L46.6441 19.7486C48.276 19.7334 49.5964 18.4164 49.6159 16.7845L49.7183 8.20479C49.7286 7.33963 49.3649 6.51214 48.7206 5.93474L44.2467 1.92589C43.6893 1.42636 42.9652 1.15328 42.2167 1.16027L40.0794 1.18023C38.4226 1.1957 37.0921 2.55132 37.1075 4.2081L37.1714 11.0479C37.1814 12.1192 36.321 12.9959 35.2496 13.0059C34.1958 13.0157 33.3269 12.1825 33.2926 11.1292L33.0659 4.17609C33.0128 2.54728 31.6691 1.25876 30.0395 1.27398L4.19298 1.51532C2.5362 1.53079 1.20566 2.88642 1.22113 4.54321Z" fill="#0A4B70" stroke="white"/>
<circle cx="8.76101" cy="19.8283" r="3.33535" transform="rotate(-0.534997 8.76101 19.8283)" fill="#0A4B70" stroke="white"/>
<circle cx="19.171" cy="19.731" r="3.33535" transform="rotate(-0.534997 19.171 19.731)" fill="#0A4B70" stroke="white"/>
<circle cx="38.3468" cy="19.5521" r="3.33535" transform="rotate(-0.534997 38.3468 19.5521)" fill="#0A4B70" stroke="white"/>
</svg>
